<?xml version="1.0" encoding="UTF-8"?>
<!DOCTYPE svg PUBLIC "-//W3C//DTD SVG 1.1//EN" "http://www.w3.org/Graphics/SVG/1.1/DTD/svg11.dtd">
<svg xmlns="http://www.w3.org/2000/svg" version="1.1" width="36px" height="36px" style="shape-rendering:geometricPrecision; text-rendering:geometricPrecision; image-rendering:optimizeQuality; fill-rule:evenodd; clip-rule:evenodd" xmlns:xlink="http://www.w3.org/1999/xlink">
<g><path style="opacity:0.683" fill="#fefffe" d="M 13.5,-0.5 C 16.5,-0.5 19.5,-0.5 22.5,-0.5C 28.674,5.38023 29.0073,11.5469 23.5,18C 28.9322,19.9363 32.9322,23.4363 35.5,28.5C 35.5,30.8333 35.5,33.1667 35.5,35.5C 23.5,35.5 11.5,35.5 -0.5,35.5C -0.5,33.1667 -0.5,30.8333 -0.5,28.5C 2.0678,23.4363 6.0678,19.9363 11.5,18C 5.72139,11.0675 6.38806,4.90081 13.5,-0.5 Z M 15.5,1.5 C 23.5127,1.86369 26.3461,5.86369 24,13.5C 19.6667,17.5 15.3333,17.5 11,13.5C 8.89547,8.05623 10.3955,4.05623 15.5,1.5 Z M 13.5,19.5 C 23.8094,18.3169 30.4761,22.6502 33.5,32.5C 22.8333,33.8333 12.1667,33.8333 1.5,32.5C 3.4866,26.1845 7.4866,21.8512 13.5,19.5 Z"/></g>
</svg>
